<mxfile host="app.diagrams.net" modified="2024-06-03T22:42:08.171Z" agent="Mozilla/5.0 (X11; Linux x86_64) AppleWebKit/537.36 (KHTML, like Gecko) Chrome/124.0.0.0 Safari/537.36" etag="cTim1wbyHjyA5-ARmjqh" version="24.4.8" type="device">
  <diagram name="Page-1" id="YThAL3wuDi8t5uSE7ULP">
    <mxGraphModel dx="1444" dy="955" grid="1" gridSize="10" guides="1" tooltips="1" connect="1" arrows="1" fold="1" page="1" pageScale="1" pageWidth="1600" pageHeight="900" math="0" shadow="0">
      <root>
        <mxCell id="0" />
        <mxCell id="1" parent="0" />
        <mxCell id="IkkFgdYV5m_vwMMuBGb_-25" value="Binding of a &lt;br style=&quot;font-size: 13px;&quot;&gt;compilation&amp;nbsp;&lt;span style=&quot;background-color: initial; font-size: 13px;&quot;&gt;pass&lt;/span&gt;&lt;div style=&quot;font-size: 13px;&quot;&gt;&lt;span style=&quot;background-color: initial; font-size: 13px;&quot;&gt;to RTIC &lt;br style=&quot;font-size: 13px;&quot;&gt;procmacro/distro builder&amp;nbsp;&lt;/span&gt;&lt;/div&gt;" style="text;html=1;align=left;verticalAlign=middle;resizable=0;points=[];autosize=1;strokeColor=none;fillColor=none;rounded=0;fontSize=13;" vertex="1" parent="1">
          <mxGeometry x="538.5" y="581" width="170" height="80" as="geometry" />
        </mxCell>
        <mxCell id="IkkFgdYV5m_vwMMuBGb_-34" value="Binding of low level HW details&amp;nbsp;&lt;div style=&quot;font-size: 13px;&quot;&gt;to&amp;nbsp;&lt;span style=&quot;background-color: initial; font-size: 13px;&quot;&gt;a HW agnotstic pass&lt;/span&gt;&lt;/div&gt;" style="text;html=1;align=left;verticalAlign=middle;resizable=0;points=[];autosize=1;strokeColor=none;fillColor=none;rounded=0;fontSize=13;" vertex="1" parent="1">
          <mxGeometry x="318.1" y="636.5" width="200" height="40" as="geometry" />
        </mxCell>
        <mxCell id="IkkFgdYV5m_vwMMuBGb_-35" value="" style="rounded=0;whiteSpace=wrap;html=1;fillColor=#9AC4FC;strokeColor=#9673a6;" vertex="1" parent="1">
          <mxGeometry x="65.00000000000003" y="587.75" width="30.5" height="20" as="geometry" />
        </mxCell>
        <mxCell id="IkkFgdYV5m_vwMMuBGb_-36" value="Compilation passes &lt;br style=&quot;font-size: 13px;&quot;&gt;each on a separate crate" style="text;html=1;align=left;verticalAlign=middle;resizable=0;points=[];autosize=1;strokeColor=none;fillColor=none;rounded=0;fontSize=13;" vertex="1" parent="1">
          <mxGeometry x="105.00000000000003" y="580" width="170" height="40" as="geometry" />
        </mxCell>
        <mxCell id="IkkFgdYV5m_vwMMuBGb_-40" value="" style="rounded=1;whiteSpace=wrap;html=1;fillColor=#C9C9C9;strokeColor=#666666;fontColor=#333333;" vertex="1" parent="1">
          <mxGeometry x="275.6" y="591" width="32" height="20" as="geometry" />
        </mxCell>
        <mxCell id="IkkFgdYV5m_vwMMuBGb_-41" value="Implementation of bindable&amp;nbsp;&lt;div style=&quot;font-size: 13px;&quot;&gt;low level HW details&lt;/div&gt;" style="text;html=1;align=left;verticalAlign=middle;resizable=0;points=[];autosize=1;strokeColor=none;fillColor=none;fontSize=13;" vertex="1" parent="1">
          <mxGeometry x="318.1" y="585" width="180" height="40" as="geometry" />
        </mxCell>
        <mxCell id="IkkFgdYV5m_vwMMuBGb_-43" value="" style="rounded=0;whiteSpace=wrap;html=1;fillColor=#dae8fc;strokeColor=#6c8ebf;dashed=1;strokeWidth=2;" vertex="1" parent="1">
          <mxGeometry x="65.00000000000003" y="627.75" width="30.5" height="20" as="geometry" />
        </mxCell>
        <mxCell id="IkkFgdYV5m_vwMMuBGb_-44" value="Utiliy to bind passes for&lt;span style=&quot;background-color: initial; font-size: 13px;&quot;&gt;&amp;nbsp;&lt;br style=&quot;font-size: 13px;&quot;&gt;Composing a custom RTIC&lt;br style=&quot;font-size: 13px;&quot;&gt;distribution&lt;/span&gt;" style="text;html=1;align=left;verticalAlign=middle;resizable=0;points=[];autosize=1;strokeColor=none;fillColor=none;rounded=0;fontSize=13;" vertex="1" parent="1">
          <mxGeometry x="105.00000000000003" y="619" width="180" height="60" as="geometry" />
        </mxCell>
        <mxCell id="IkkFgdYV5m_vwMMuBGb_-61" value="&lt;span style=&quot;&quot;&gt;Provided by RTIC or Third party:&lt;/span&gt;" style="text;html=1;align=left;verticalAlign=middle;resizable=0;points=[];autosize=1;strokeColor=none;fillColor=none;fontStyle=1;fontSize=12;" vertex="1" parent="1">
          <mxGeometry x="60.00000000000003" y="550" width="200" height="30" as="geometry" />
        </mxCell>
        <mxCell id="IkkFgdYV5m_vwMMuBGb_-62" value="&lt;span style=&quot;&quot;&gt;Provided by Distributor:&lt;/span&gt;" style="text;html=1;align=left;verticalAlign=middle;resizable=0;points=[];autosize=1;strokeColor=none;fillColor=none;fontStyle=1;fontSize=12;" vertex="1" parent="1">
          <mxGeometry x="273.1" y="551" width="150" height="30" as="geometry" />
        </mxCell>
        <mxCell id="IkkFgdYV5m_vwMMuBGb_-49" value="&lt;b style=&quot;font-size: 14px;&quot;&gt;pass 4: &lt;/b&gt;some pass added in future" style="rounded=0;whiteSpace=wrap;html=1;fontSize=14;fillColor=#9AC4FC;strokeColor=#6c8ebf;fontStyle=2" vertex="1" parent="1">
          <mxGeometry x="215.6" y="150" width="270" height="27" as="geometry" />
        </mxCell>
        <mxCell id="IkkFgdYV5m_vwMMuBGb_-50" value="&lt;b style=&quot;font-size: 14px;&quot;&gt;pass N: &lt;/b&gt;other pass" style="rounded=0;whiteSpace=wrap;html=1;fontSize=14;fillColor=#9AC4FC;strokeColor=#6c8ebf;fontStyle=2" vertex="1" parent="1">
          <mxGeometry x="215.60000000000002" y="90" width="270" height="27" as="geometry" />
        </mxCell>
        <mxCell id="IkkFgdYV5m_vwMMuBGb_-51" value="&lt;b&gt;...&lt;/b&gt;" style="rounded=0;whiteSpace=wrap;html=1;fontSize=15;fillColor=#9AC4FC;strokeColor=#6c8ebf;" vertex="1" parent="1">
          <mxGeometry x="215.6" y="120" width="270" height="27" as="geometry" />
        </mxCell>
        <mxCell id="IkkFgdYV5m_vwMMuBGb_-1" value="&lt;b style=&quot;font-size: 14px;&quot;&gt;rtic-core:&lt;/b&gt;&amp;nbsp;standard pass &lt;br style=&quot;font-size: 14px;&quot;&gt;(tasks and resources)" style="rounded=0;whiteSpace=wrap;html=1;fontSize=14;fillColor=#9AC4FC;strokeColor=#6c8ebf;fontStyle=2" vertex="1" parent="1">
          <mxGeometry x="215.6" y="347" width="270" height="84" as="geometry" />
        </mxCell>
        <mxCell id="IkkFgdYV5m_vwMMuBGb_-2" value="&lt;b style=&quot;font-size: 14px;&quot;&gt;rtic-sw-pass:&lt;/b&gt;&amp;nbsp;software pass &lt;br style=&quot;font-size: 14px;&quot;&gt;(software tasks)" style="rounded=0;whiteSpace=wrap;html=1;fontSize=14;fillColor=#9AC4FC;strokeColor=#6c8ebf;fontStyle=2" vertex="1" parent="1">
          <mxGeometry x="215.6" y="260" width="270" height="84" as="geometry" />
        </mxCell>
        <mxCell id="IkkFgdYV5m_vwMMuBGb_-3" value="&lt;b style=&quot;font-size: 14px;&quot;&gt;rtic-auto-assign: &lt;/b&gt;auto task to&lt;br&gt;&amp;nbsp;core assignment for multicore" style="rounded=0;whiteSpace=wrap;html=1;fontSize=14;fillColor=#9AC4FC;strokeColor=#6c8ebf;fontStyle=2" vertex="1" parent="1">
          <mxGeometry x="215.6" y="180" width="270" height="77" as="geometry" />
        </mxCell>
        <mxCell id="IkkFgdYV5m_vwMMuBGb_-11" value="RticMacroBuilder" style="rounded=0;whiteSpace=wrap;html=1;rotation=-90;fontSize=15;fillColor=#dae8fc;strokeColor=#6c8ebf;strokeWidth=2;dashed=1;" vertex="1" parent="1">
          <mxGeometry x="-28.629999999999995" y="229.02" width="342.11" height="66.84" as="geometry" />
        </mxCell>
        <mxCell id="IkkFgdYV5m_vwMMuBGb_-26" value="SwPassBackend" style="rounded=1;whiteSpace=wrap;html=1;fillColor=#C9C9C9;strokeColor=#666666;fontSize=13;fontColor=#333333;fontStyle=1" vertex="1" parent="1">
          <mxGeometry x="535.6" y="289" width="134.4" height="30" as="geometry" />
        </mxCell>
        <mxCell id="IkkFgdYV5m_vwMMuBGb_-31" value="StdPassBackend" style="rounded=1;whiteSpace=wrap;html=1;fillColor=#C9C9C9;strokeColor=#666666;fontSize=13;fontColor=#333333;fontStyle=1" vertex="1" parent="1">
          <mxGeometry x="535.6" y="380" width="134.4" height="30" as="geometry" />
        </mxCell>
        <mxCell id="IkkFgdYV5m_vwMMuBGb_-73" value="&lt;span style=&quot;color: rgb(0, 0, 0); font-size: 14px; text-wrap: nowrap;&quot;&gt;&lt;b&gt;RTIC distribution for specifc target(s)&lt;/b&gt;&lt;/span&gt;" style="rounded=1;whiteSpace=wrap;html=1;dashed=1;dashPattern=1 1;fillColor=#e1d5e7;strokeColor=#9673a6;strokeWidth=2;" vertex="1" parent="1">
          <mxGeometry x="106" y="477" width="384" height="50" as="geometry" />
        </mxCell>
        <mxCell id="IkkFgdYV5m_vwMMuBGb_-78" value="" style="sketch=0;html=1;aspect=fixed;strokeColor=#6c8ebf;shadow=0;fillColor=#6C8EBF;verticalAlign=top;labelPosition=center;verticalLabelPosition=bottom;shape=mxgraph.gcp2.gear" vertex="1" parent="1">
          <mxGeometry x="118" y="412.37" width="40.63" height="40.63" as="geometry" />
        </mxCell>
        <mxCell id="IkkFgdYV5m_vwMMuBGb_-79" style="edgeStyle=orthogonalEdgeStyle;rounded=0;orthogonalLoop=1;jettySize=auto;html=1;entryX=0.098;entryY=0.023;entryDx=0;entryDy=0;entryPerimeter=0;strokeColor=#6C8EBF;endArrow=block;endFill=0;strokeWidth=2;" edge="1" parent="1">
          <mxGeometry relative="1" as="geometry">
            <mxPoint x="137.32" y="453" as="sourcePoint" />
            <mxPoint x="137.712" y="478.15" as="targetPoint" />
          </mxGeometry>
        </mxCell>
        <mxCell id="IkkFgdYV5m_vwMMuBGb_-86" style="edgeStyle=orthogonalEdgeStyle;rounded=0;orthogonalLoop=1;jettySize=auto;html=1;strokeWidth=3;endArrow=diamond;endFill=0;fillColor=#647687;strokeColor=#314354;" edge="1" parent="1" source="IkkFgdYV5m_vwMMuBGb_-2">
          <mxGeometry relative="1" as="geometry">
            <mxPoint x="170" y="302" as="targetPoint" />
          </mxGeometry>
        </mxCell>
        <mxCell id="IkkFgdYV5m_vwMMuBGb_-87" style="edgeStyle=orthogonalEdgeStyle;rounded=0;orthogonalLoop=1;jettySize=auto;html=1;entryX=0.628;entryY=0.748;entryDx=0;entryDy=0;entryPerimeter=0;exitX=0;exitY=0.5;exitDx=0;exitDy=0;strokeWidth=3;endArrow=diamond;endFill=0;fillColor=#647687;strokeColor=#314354;" edge="1" parent="1" source="IkkFgdYV5m_vwMMuBGb_-3">
          <mxGeometry relative="1" as="geometry">
            <mxPoint x="225.60000000000002" y="218.5" as="sourcePoint" />
            <mxPoint x="169.00132" y="218.64992" as="targetPoint" />
          </mxGeometry>
        </mxCell>
        <mxCell id="IkkFgdYV5m_vwMMuBGb_-88" style="edgeStyle=orthogonalEdgeStyle;rounded=0;orthogonalLoop=1;jettySize=auto;html=1;entryX=0.789;entryY=0.748;entryDx=0;entryDy=0;entryPerimeter=0;exitX=0;exitY=0.5;exitDx=0;exitDy=0;strokeWidth=3;endArrow=diamond;endFill=0;fillColor=#647687;strokeColor=#314354;" edge="1" parent="1" source="IkkFgdYV5m_vwMMuBGb_-49">
          <mxGeometry relative="1" as="geometry">
            <mxPoint x="225.60000000000002" y="163.49999999999997" as="sourcePoint" />
            <mxPoint x="169.00132" y="163.57020999999997" as="targetPoint" />
          </mxGeometry>
        </mxCell>
        <mxCell id="IkkFgdYV5m_vwMMuBGb_-89" style="edgeStyle=orthogonalEdgeStyle;rounded=0;orthogonalLoop=1;jettySize=auto;html=1;entryX=0.877;entryY=0.748;entryDx=0;entryDy=0;entryPerimeter=0;exitX=0;exitY=0.5;exitDx=0;exitDy=0;strokeWidth=3;endArrow=diamond;endFill=0;fillColor=#647687;strokeColor=#314354;" edge="1" parent="1" source="IkkFgdYV5m_vwMMuBGb_-51">
          <mxGeometry relative="1" as="geometry">
            <mxPoint x="225.60000000000002" y="133.49999999999997" as="sourcePoint" />
            <mxPoint x="169.00132" y="133.46452999999997" as="targetPoint" />
          </mxGeometry>
        </mxCell>
        <mxCell id="IkkFgdYV5m_vwMMuBGb_-92" style="edgeStyle=orthogonalEdgeStyle;rounded=0;orthogonalLoop=1;jettySize=auto;html=1;entryX=0.965;entryY=0.748;entryDx=0;entryDy=0;entryPerimeter=0;exitX=0;exitY=0.5;exitDx=0;exitDy=0;strokeWidth=3;endArrow=diamond;endFill=0;fillColor=#647687;strokeColor=#314354;" edge="1" parent="1" source="IkkFgdYV5m_vwMMuBGb_-50">
          <mxGeometry relative="1" as="geometry">
            <mxPoint x="225.60000000000002" y="103.5" as="sourcePoint" />
            <mxPoint x="169.00132" y="103.35884999999999" as="targetPoint" />
          </mxGeometry>
        </mxCell>
        <mxCell id="IkkFgdYV5m_vwMMuBGb_-94" style="edgeStyle=orthogonalEdgeStyle;rounded=0;orthogonalLoop=1;jettySize=auto;html=1;strokeWidth=3;endArrow=diamond;endFill=0;fillColor=#647687;strokeColor=#314354;" edge="1" parent="1" source="IkkFgdYV5m_vwMMuBGb_-1">
          <mxGeometry relative="1" as="geometry">
            <mxPoint x="170" y="389" as="targetPoint" />
          </mxGeometry>
        </mxCell>
        <mxCell id="IkkFgdYV5m_vwMMuBGb_-95" value="BIND" style="text;html=1;align=center;verticalAlign=middle;resizable=0;points=[];autosize=1;strokeColor=none;fillColor=none;fontSize=10;" vertex="1" parent="1">
          <mxGeometry x="168.63" y="80" width="50" height="30" as="geometry" />
        </mxCell>
        <mxCell id="IkkFgdYV5m_vwMMuBGb_-96" value="BIND" style="text;html=1;align=center;verticalAlign=middle;resizable=0;points=[];autosize=1;strokeColor=none;fillColor=none;fontSize=10;" vertex="1" parent="1">
          <mxGeometry x="168.63" y="110" width="50" height="30" as="geometry" />
        </mxCell>
        <mxCell id="IkkFgdYV5m_vwMMuBGb_-97" value="BIND" style="text;html=1;align=center;verticalAlign=middle;resizable=0;points=[];autosize=1;strokeColor=none;fillColor=none;fontSize=10;" vertex="1" parent="1">
          <mxGeometry x="168.63" y="140" width="50" height="30" as="geometry" />
        </mxCell>
        <mxCell id="IkkFgdYV5m_vwMMuBGb_-98" value="BIND" style="text;html=1;align=center;verticalAlign=middle;resizable=0;points=[];autosize=1;strokeColor=none;fillColor=none;fontSize=10;" vertex="1" parent="1">
          <mxGeometry x="168.63" y="195" width="50" height="30" as="geometry" />
        </mxCell>
        <mxCell id="IkkFgdYV5m_vwMMuBGb_-99" value="BIND" style="text;html=1;align=center;verticalAlign=middle;resizable=0;points=[];autosize=1;strokeColor=none;fillColor=none;fontSize=10;" vertex="1" parent="1">
          <mxGeometry x="169.63" y="280" width="50" height="30" as="geometry" />
        </mxCell>
        <mxCell id="IkkFgdYV5m_vwMMuBGb_-100" value="BIND" style="text;html=1;align=center;verticalAlign=middle;resizable=0;points=[];autosize=1;strokeColor=none;fillColor=none;fontSize=10;" vertex="1" parent="1">
          <mxGeometry x="169.63" y="366" width="50" height="30" as="geometry" />
        </mxCell>
        <mxCell id="IkkFgdYV5m_vwMMuBGb_-102" style="edgeStyle=orthogonalEdgeStyle;rounded=0;orthogonalLoop=1;jettySize=auto;html=1;exitX=0;exitY=0.5;exitDx=0;exitDy=0;entryX=0.979;entryY=0.524;entryDx=0;entryDy=0;entryPerimeter=0;endArrow=box;endFill=0;strokeWidth=3;strokeColor=#314354;fillColor=#647687;" edge="1" parent="1" source="IkkFgdYV5m_vwMMuBGb_-26" target="IkkFgdYV5m_vwMMuBGb_-2">
          <mxGeometry relative="1" as="geometry" />
        </mxCell>
        <mxCell id="IkkFgdYV5m_vwMMuBGb_-104" style="edgeStyle=orthogonalEdgeStyle;rounded=0;orthogonalLoop=1;jettySize=auto;html=1;exitX=0;exitY=0.5;exitDx=0;exitDy=0;entryX=0.979;entryY=0.569;entryDx=0;entryDy=0;entryPerimeter=0;endArrow=box;endFill=0;strokeWidth=3;strokeColor=#314354;fillColor=#647687;" edge="1" parent="1" source="IkkFgdYV5m_vwMMuBGb_-31" target="IkkFgdYV5m_vwMMuBGb_-1">
          <mxGeometry relative="1" as="geometry" />
        </mxCell>
        <mxCell id="IkkFgdYV5m_vwMMuBGb_-105" value="BIND" style="text;html=1;align=center;verticalAlign=middle;resizable=0;points=[];autosize=1;strokeColor=none;fillColor=none;fontSize=10;" vertex="1" parent="1">
          <mxGeometry x="485.6" y="280" width="50" height="30" as="geometry" />
        </mxCell>
        <mxCell id="IkkFgdYV5m_vwMMuBGb_-106" value="BIND" style="text;html=1;align=center;verticalAlign=middle;resizable=0;points=[];autosize=1;strokeColor=none;fillColor=none;fontSize=10;" vertex="1" parent="1">
          <mxGeometry x="485.6" y="372.13" width="50" height="30" as="geometry" />
        </mxCell>
        <mxCell id="IkkFgdYV5m_vwMMuBGb_-107" value="" style="endArrow=none;dashed=1;html=1;dashPattern=1 3;strokeWidth=2;rounded=0;" edge="1" parent="1">
          <mxGeometry width="50" height="50" relative="1" as="geometry">
            <mxPoint x="547" y="440" as="sourcePoint" />
            <mxPoint x="547" y="20" as="targetPoint" />
          </mxGeometry>
        </mxCell>
        <mxCell id="IkkFgdYV5m_vwMMuBGb_-108" value="" style="endArrow=none;dashed=1;html=1;dashPattern=1 3;strokeWidth=2;rounded=0;" edge="1" parent="1">
          <mxGeometry width="50" height="50" relative="1" as="geometry">
            <mxPoint x="467" y="440" as="sourcePoint" />
            <mxPoint x="467" y="20" as="targetPoint" />
          </mxGeometry>
        </mxCell>
        <mxCell id="IkkFgdYV5m_vwMMuBGb_-109" value="" style="endArrow=none;dashed=1;html=1;dashPattern=1 3;strokeWidth=2;rounded=0;" edge="1" parent="1">
          <mxGeometry width="50" height="50" relative="1" as="geometry">
            <mxPoint x="230" y="440" as="sourcePoint" />
            <mxPoint x="230" y="20" as="targetPoint" />
          </mxGeometry>
        </mxCell>
        <mxCell id="IkkFgdYV5m_vwMMuBGb_-110" value="" style="endArrow=none;dashed=1;html=1;dashPattern=1 3;strokeWidth=2;rounded=0;" edge="1" parent="1">
          <mxGeometry width="50" height="50" relative="1" as="geometry">
            <mxPoint x="160" y="440" as="sourcePoint" />
            <mxPoint x="160" y="20" as="targetPoint" />
          </mxGeometry>
        </mxCell>
        <mxCell id="IkkFgdYV5m_vwMMuBGb_-111" value="STAGE 1" style="text;html=1;align=center;verticalAlign=middle;resizable=0;points=[];autosize=1;strokeColor=none;fillColor=none;rotation=0;fontStyle=1" vertex="1" parent="1">
          <mxGeometry x="472.6" y="30" width="70" height="30" as="geometry" />
        </mxCell>
        <mxCell id="IkkFgdYV5m_vwMMuBGb_-112" value="STAGE 2" style="text;html=1;align=center;verticalAlign=middle;resizable=0;points=[];autosize=1;strokeColor=none;fillColor=none;rotation=0;fontStyle=1" vertex="1" parent="1">
          <mxGeometry x="158.63" y="30" width="70" height="30" as="geometry" />
        </mxCell>
        <mxCell id="IkkFgdYV5m_vwMMuBGb_-113" style="edgeStyle=orthogonalEdgeStyle;rounded=0;orthogonalLoop=1;jettySize=auto;html=1;entryX=0.979;entryY=0.524;entryDx=0;entryDy=0;entryPerimeter=0;endArrow=box;endFill=0;strokeWidth=3;strokeColor=#314354;fillColor=#647687;" edge="1" parent="1">
          <mxGeometry relative="1" as="geometry">
            <mxPoint x="306.6" y="651" as="sourcePoint" />
            <mxPoint x="276.6" y="651" as="targetPoint" />
          </mxGeometry>
        </mxCell>
        <mxCell id="IkkFgdYV5m_vwMMuBGb_-114" style="edgeStyle=orthogonalEdgeStyle;rounded=0;orthogonalLoop=1;jettySize=auto;html=1;strokeWidth=3;endArrow=diamond;endFill=0;fillColor=#647687;strokeColor=#314354;" edge="1" parent="1">
          <mxGeometry relative="1" as="geometry">
            <mxPoint x="524" y="600.25" as="sourcePoint" />
            <mxPoint x="494" y="600.25" as="targetPoint" />
          </mxGeometry>
        </mxCell>
        <mxCell id="IkkFgdYV5m_vwMMuBGb_-119" value="&lt;b&gt;1&lt;/b&gt;" style="ellipse;whiteSpace=wrap;html=1;aspect=fixed;fillColor=#0050ef;fontColor=#ffffff;strokeColor=#001DBC;" vertex="1" parent="1">
          <mxGeometry x="455.6" y="350.75" width="20" height="20" as="geometry" />
        </mxCell>
        <mxCell id="IkkFgdYV5m_vwMMuBGb_-120" value="&lt;b&gt;2&lt;/b&gt;" style="ellipse;whiteSpace=wrap;html=1;aspect=fixed;fillColor=#0050ef;fontColor=#ffffff;strokeColor=#001DBC;" vertex="1" parent="1">
          <mxGeometry x="455.6" y="270.75" width="20" height="20" as="geometry" />
        </mxCell>
        <mxCell id="IkkFgdYV5m_vwMMuBGb_-121" value="&lt;b&gt;3&lt;/b&gt;" style="ellipse;whiteSpace=wrap;html=1;aspect=fixed;fillColor=#0050ef;fontColor=#ffffff;strokeColor=#001DBC;" vertex="1" parent="1">
          <mxGeometry x="455.6" y="190.75" width="20" height="20" as="geometry" />
        </mxCell>
        <mxCell id="IkkFgdYV5m_vwMMuBGb_-123" value="&lt;b&gt;N&lt;/b&gt;" style="ellipse;whiteSpace=wrap;html=1;aspect=fixed;fillColor=#0050ef;fontColor=#ffffff;strokeColor=#001DBC;" vertex="1" parent="1">
          <mxGeometry x="456.6" y="93.75" width="20" height="20" as="geometry" />
        </mxCell>
        <mxCell id="IkkFgdYV5m_vwMMuBGb_-124" value="" style="endArrow=none;html=1;rounded=0;" edge="1" parent="1">
          <mxGeometry width="50" height="50" relative="1" as="geometry">
            <mxPoint x="260" y="672" as="sourcePoint" />
            <mxPoint x="260" y="552" as="targetPoint" />
          </mxGeometry>
        </mxCell>
      </root>
    </mxGraphModel>
  </diagram>
</mxfile>
